<?xml version="1.0" standalone="no"?>
<svg viewBox="0 0 200 200" xmlns="http://www.w3.org/2000/svg">
  <path fill="#BABCFF" d="M27.5,-51.6C33.5,-44.2,34.6,-32.4,34.6,-23.1C34.7,-13.8,33.6,-6.9,40,3.7C46.5,14.4,60.5,28.7,60.6,38.2C60.7,47.8,46.9,52.5,34.5,57.5C22,62.4,11,67.5,2.9,62.5C-5.2,57.5,-10.4,42.3,-22,36.9C-33.5,31.4,-51.4,35.7,-62.2,31.2C-73,26.6,-76.7,13.3,-73.7,1.8C-70.6,-9.8,-60.8,-19.6,-54.9,-32.6C-49,-45.6,-47,-61.9,-38.6,-67.8C-30.1,-73.8,-15,-69.4,-2.1,-65.8C10.8,-62.1,21.6,-59.1,27.5,-51.6Z" transform="translate(100 100)" />
</svg>
