<?xml version="1.0" standalone="no"?>
<svg viewBox="0 0 200 200" xmlns="http://www.w3.org/2000/svg">
  <path fill="#FFD899" d="M37.2,-69.1C46.4,-59.2,50.6,-45.4,57.1,-33.3C63.6,-21.1,72.4,-10.6,67.3,-3C62.2,4.6,43.1,9.3,34.4,17.5C25.6,25.8,27.1,37.7,23.1,50.7C19.1,63.8,9.5,78,1.1,76.1C-7.4,74.3,-14.8,56.3,-22.6,45.5C-30.4,34.6,-38.6,30.8,-46.4,24.4C-54.3,18,-61.8,9,-60.7,0.6C-59.7,-7.8,-50,-15.5,-43.1,-23.5C-36.1,-31.5,-31.9,-39.7,-25.1,-51C-18.4,-62.3,-9.2,-76.8,2.4,-81C14,-85.2,28.1,-79.1,37.2,-69.1Z" transform="translate(100 100)" />
</svg>
