<?xml version="1.0" standalone="no"?>
<svg viewBox="0 0 200 200" xmlns="http://www.w3.org/2000/svg">
  <path fill="#D7B8D9" d="M24.3,-34.2C35.7,-35.6,52,-37.5,61.6,-31.9C71.3,-26.3,74.3,-13.1,71.2,-1.8C68,9.5,58.7,19,51.8,29.3C44.8,39.5,40.1,50.4,31.9,52.5C23.6,54.6,11.8,47.8,-1.7,50.7C-15.1,53.5,-30.3,66.1,-35.4,62.2C-40.5,58.4,-35.7,38.1,-35.4,25C-35.1,11.9,-39.4,5.9,-43.4,-2.3C-47.4,-10.6,-51.2,-21.2,-47.2,-26.8C-43.1,-32.4,-31.3,-33,-22.1,-32.9C-12.9,-32.9,-6.5,-32.1,0,-32.1C6.5,-32.2,13,-32.9,24.3,-34.2Z" transform="translate(100 100)" />
</svg>
